<svg width="16048" height="7609" viewBox="0 0 16048 7609" fill="none" xmlns="http://www.w3.org/2000/svg">
<circle cx="1612" cy="2000" r="1490" stroke="#006CA9" stroke-width="20"/>
<circle cx="1606" cy="1004" r="390" stroke="#006CA9" stroke-width="20"/>
<circle cx="2412" cy="1511" r="390" stroke="#006CA9" stroke-width="20"/>
<circle cx="800" cy="2495" r="390" stroke="#006CA9" stroke-width="20"/>
<circle cx="800" cy="1511" r="390" stroke="#006CA9" stroke-width="20"/>
<circle cx="2412" cy="2495" r="390" stroke="#006CA9" stroke-width="20"/>
<circle cx="1612" cy="2971" r="390" stroke="#006CA9" stroke-width="20"/>
<path d="M1213.11 361.064L1213.23 297.552H1220.94L1282.09 225.091H1342.86L1260.71 321.043H1248.15L1213.11 361.064ZM1165.13 416V161.455H1218.08V416H1165.13ZM1284.45 416L1228.27 332.85L1263.57 295.439L1346.47 416H1284.45ZM1461.78 269.587V225.339H1633.42V269.587H1461.78ZM1461.78 352.115V307.868H1633.42V352.115H1461.78ZM1868.05 421.593C1846.67 421.51 1828.28 416.249 1812.87 405.808C1797.54 395.368 1785.73 380.246 1777.44 360.442C1769.24 340.639 1765.18 316.817 1765.26 288.976C1765.26 261.218 1769.36 237.561 1777.57 218.006C1785.85 198.451 1797.66 183.578 1812.99 173.386C1828.4 163.112 1846.76 157.974 1868.05 157.974C1889.35 157.974 1907.66 163.112 1922.99 173.386C1938.4 183.661 1950.25 198.576 1958.53 218.131C1966.82 237.603 1970.92 261.218 1970.84 288.976C1970.84 316.9 1966.69 340.763 1958.41 360.567C1950.21 380.37 1938.44 395.492 1923.11 405.933C1907.78 416.373 1889.43 421.593 1868.05 421.593ZM1868.05 376.973C1882.63 376.973 1894.28 369.64 1902.98 354.974C1911.68 340.308 1915.98 318.308 1915.9 288.976C1915.9 269.67 1913.91 253.595 1909.94 240.751C1906.04 227.908 1900.49 218.255 1893.28 211.792C1886.15 205.329 1877.74 202.097 1868.05 202.097C1853.55 202.097 1841.95 209.348 1833.25 223.848C1824.55 238.348 1820.16 260.058 1820.07 288.976C1820.07 308.531 1822.02 324.854 1825.92 337.946C1829.89 350.955 1835.49 360.732 1842.69 367.278C1849.9 373.741 1858.36 376.973 1868.05 376.973Z" fill="#737370"/>
<path d="M1723.31 1850L1762 1880.26L1594.24 2150H1555.55L1462 2003.86L1500.69 1963.63L1574.9 2040.88L1723.31 1850Z" fill="#FA8F00"/>
<circle cx="14415" cy="2000" r="1490" stroke="#006CA9" stroke-width="20"/>
<circle cx="14409" cy="1004" r="390" stroke="#006CA9" stroke-width="20"/>
<circle cx="15215" cy="1511" r="390" fill="#006CA9" stroke="#006CA9" stroke-width="20"/>
<circle cx="13603" cy="2495" r="390" fill="#006CA9" stroke="#006CA9" stroke-width="20"/>
<circle cx="13603" cy="1511" r="390" stroke="#006CA9" stroke-width="20"/>
<circle cx="15215" cy="2495" r="390" stroke="#006CA9" stroke-width="20"/>
<circle cx="14415" cy="2971" r="390" stroke="#006CA9" stroke-width="20"/>
<path d="M14016.1 361.064L14016.2 297.552H14023.9L14085.1 225.091H14145.9L14063.7 321.043H14051.2L14016.1 361.064ZM13968.1 416V161.455H14021.1V416H13968.1ZM14087.4 416L14031.3 332.85L14066.6 295.439L14149.5 416H14087.4ZM14264.8 269.587V225.339H14436.4V269.587H14264.8ZM14264.8 352.115V307.868H14436.4V352.115H14264.8ZM14571.2 416V377.222L14661.9 293.326C14669.6 285.869 14676 279.157 14681.2 273.191C14686.5 267.225 14690.6 261.384 14693.3 255.666C14696 249.866 14697.4 243.61 14697.4 236.898C14697.4 229.441 14695.7 223.019 14692.3 217.634C14688.9 212.165 14684.3 207.98 14678.4 205.08C14672.5 202.097 14665.8 200.606 14658.4 200.606C14650.6 200.606 14643.8 202.18 14638 205.329C14632.2 208.478 14627.7 212.993 14624.6 218.876C14621.4 224.759 14619.8 231.761 14619.8 239.881H14568.8C14568.8 223.227 14572.5 208.768 14580.1 196.504C14587.6 184.241 14598.2 174.754 14611.8 168.042C14625.4 161.33 14641 157.974 14658.7 157.974C14677 157.974 14692.8 161.206 14706.3 167.669C14719.9 174.049 14730.5 182.915 14738 194.267C14745.6 205.619 14749.4 218.628 14749.4 233.294C14749.4 242.906 14747.4 252.393 14743.6 261.756C14739.9 271.12 14733.2 281.518 14723.6 292.953C14714 304.305 14700.5 317.935 14683 333.844L14645.8 370.261V372.001H14752.7V416H14571.2Z" fill="#737370"/>
<path d="M14526.3 1850L14565 1880.26L14397.2 2150H14358.6L14265 2003.86L14303.7 1963.63L14377.9 2040.88L14526.3 1850Z" fill="#FA8F00"/>
<circle cx="8012" cy="2000" r="1490" stroke="#006CA9" stroke-width="20"/>
<circle cx="8006" cy="1004" r="390" stroke="#006CA9" stroke-width="20"/>
<circle cx="8812" cy="1511" r="390" fill="#006CA9" stroke="#006CA9" stroke-width="20"/>
<circle cx="7200" cy="2495" r="390" stroke="#006CA9" stroke-width="20"/>
<circle cx="7200" cy="1511" r="390" fill="#006CA9" stroke="#006CA9" stroke-width="20"/>
<circle cx="8812" cy="2495" r="390" stroke="#006CA9" stroke-width="20"/>
<circle cx="8012" cy="2971" r="390" fill="#006CA9" stroke="#006CA9" stroke-width="20"/>
<path d="M7613.11 361.064L7613.23 297.552H7620.94L7682.09 225.091H7742.86L7660.71 321.043H7648.15L7613.11 361.064ZM7565.13 416V161.455H7618.08V416H7565.13ZM7684.45 416L7628.27 332.85L7663.57 295.439L7746.47 416H7684.45ZM7861.78 269.587V225.339H8033.42V269.587H7861.78ZM7861.78 352.115V307.868H8033.42V352.115H7861.78ZM8262.33 419.48C8243.77 419.48 8227.24 416.29 8212.74 409.91C8198.32 403.447 8186.93 394.581 8178.56 383.312C8170.28 371.96 8166.01 358.868 8165.76 344.036H8219.95C8220.28 350.251 8222.31 355.719 8226.04 360.442C8229.85 365.083 8234.91 368.687 8241.2 371.256C8247.5 373.824 8254.59 375.109 8262.46 375.109C8270.66 375.109 8277.91 373.659 8284.21 370.759C8290.51 367.858 8295.44 363.84 8299 358.702C8302.56 353.565 8304.34 347.641 8304.34 340.929C8304.34 334.134 8302.44 328.127 8298.63 322.907C8294.9 317.604 8289.51 313.461 8282.47 310.478C8275.51 307.495 8267.22 306.004 8257.61 306.004H8233.87V266.479H8257.61C8265.73 266.479 8272.9 265.071 8279.11 262.254C8285.41 259.436 8290.3 255.542 8293.78 250.57C8297.26 245.516 8299 239.633 8299 232.921C8299 226.541 8297.47 220.948 8294.4 216.142C8291.42 211.253 8287.19 207.442 8281.72 204.707C8276.34 201.973 8270.04 200.606 8262.83 200.606C8255.54 200.606 8248.87 201.932 8242.82 204.583C8236.77 207.152 8231.92 210.839 8228.28 215.645C8224.63 220.451 8222.68 226.085 8222.44 232.548H8170.86C8171.1 217.882 8175.29 204.956 8183.41 193.77C8191.53 182.584 8202.47 173.842 8216.22 167.545C8230.06 161.165 8245.68 157.974 8263.08 157.974C8280.64 157.974 8296.02 161.165 8309.19 167.545C8322.36 173.925 8332.6 182.542 8339.89 193.397C8347.26 204.169 8350.91 216.266 8350.83 229.69C8350.91 243.942 8346.48 255.832 8337.53 265.361C8328.66 274.89 8317.1 280.938 8302.85 283.507V285.496C8321.58 287.899 8335.83 294.403 8345.61 305.009C8355.47 315.532 8360.36 328.707 8360.27 344.533C8360.36 359.034 8356.17 371.919 8347.72 383.188C8339.35 394.456 8327.79 403.322 8313.04 409.786C8298.29 416.249 8281.39 419.48 8262.33 419.48Z" fill="#737370"/>
<path d="M8123.31 1850L8162 1880.26L7994.24 2150H7955.55L7862 2003.86L7900.69 1963.63L7974.9 2040.88L8123.31 1850Z" fill="#FA8F00"/>
<circle cx="11312" cy="2000" r="1490" stroke="#006CA9" stroke-width="20"/>
<circle cx="11306" cy="1004" r="390" fill="#006CA9" stroke="#006CA9" stroke-width="20"/>
<circle cx="12112" cy="1511" r="390" stroke="#006CA9" stroke-width="20"/>
<circle cx="10500" cy="2495" r="390" stroke="#006CA9" stroke-width="20"/>
<circle cx="10500" cy="1511" r="390" fill="#006CA9" stroke="#006CA9" stroke-width="20"/>
<circle cx="12112" cy="2495" r="390" fill="#006CA9" stroke="#006CA9" stroke-width="20"/>
<circle cx="11312" cy="2971" r="390" fill="#006CA9" stroke="#006CA9" stroke-width="20"/>
<path d="M10913.1 361.064L10913.2 297.552H10920.9L10982.1 225.091H11042.9L10960.7 321.043H10948.2L10913.1 361.064ZM10865.1 416V161.455H10918.1V416H10865.1ZM10984.4 416L10928.3 332.85L10963.6 295.439L11046.5 416H10984.4ZM11161.8 269.587V225.339H11333.4V269.587H11161.8ZM11161.8 352.115V307.868H11333.4V352.115H11161.8ZM11464.4 371.256V328.873L11570.7 161.455H11607.2V220.119H11585.6L11518.6 326.138V328.127H11669.6V371.256H11464.4ZM11586.6 416V358.33L11587.6 339.562V161.455H11638V416H11586.6Z" fill="#737370"/>
<path d="M11423.3 1850L11462 1880.26L11294.2 2150H11255.6L11162 2003.86L11200.7 1963.63L11274.9 2040.88L11423.3 1850Z" fill="#FA8F00"/>
<circle cx="4709" cy="2000" r="1490" stroke="#006CA9" stroke-width="20"/>
<circle cx="4703" cy="1004" r="390" fill="#006CA9" stroke="#006CA9" stroke-width="20"/>
<circle cx="5509" cy="1511" r="390" fill="#006CA9" stroke="#006CA9" stroke-width="20"/>
<circle cx="3897" cy="2495" r="390" fill="#006CA9" stroke="#006CA9" stroke-width="20"/>
<circle cx="3897" cy="1511" r="390" fill="#006CA9" stroke="#006CA9" stroke-width="20"/>
<circle cx="5509" cy="2495" r="390" fill="#006CA9" stroke="#006CA9" stroke-width="20"/>
<circle cx="4709" cy="2971" r="390" fill="#006CA9" stroke="#006CA9" stroke-width="20"/>
<path d="M4310.11 361.064L4310.23 297.552H4317.94L4379.09 225.091H4439.86L4357.71 321.043H4345.15L4310.11 361.064ZM4262.13 416V161.455H4315.08V416H4262.13ZM4381.45 416L4325.27 332.85L4360.57 295.439L4443.47 416H4381.45ZM4558.78 269.587V225.339H4730.42V269.587H4558.78ZM4558.78 352.115V307.868H4730.42V352.115H4558.78ZM4962.94 419.48C4949.85 419.397 4937.21 417.201 4925.03 412.893C4912.93 408.584 4902.08 401.582 4892.46 391.888C4882.85 382.193 4875.23 369.35 4869.6 353.358C4864.04 337.366 4861.27 317.728 4861.27 294.445C4861.35 273.067 4863.8 253.968 4868.6 237.147C4873.49 220.244 4880.45 205.909 4889.48 194.143C4898.6 182.377 4909.49 173.428 4922.17 167.296C4934.85 161.082 4949.06 157.974 4964.8 157.974C4981.79 157.974 4996.79 161.289 5009.79 167.918C5022.8 174.464 5033.24 183.371 5041.12 194.64C5049.07 205.909 5053.88 218.545 5055.53 232.548H5002.46C5000.39 223.682 4996.04 216.722 4989.41 211.668C4982.78 206.613 4974.58 204.086 4964.8 204.086C4948.23 204.086 4935.63 211.295 4927.02 225.712C4918.48 240.13 4914.13 259.726 4913.97 284.501H4915.71C4919.52 276.961 4924.66 270.54 4931.12 265.237C4937.66 259.851 4945.08 255.749 4953.37 252.932C4961.74 250.032 4970.56 248.582 4979.84 248.582C4994.92 248.582 5008.34 252.145 5020.11 259.271C5031.88 266.314 5041.16 276.008 5047.95 288.354C5054.75 300.701 5058.14 314.828 5058.14 330.737C5058.14 347.972 5054.12 363.301 5046.09 376.724C5038.13 390.148 5026.99 400.671 5012.65 408.294C4998.4 415.834 4981.83 419.563 4962.94 419.48ZM4962.69 377.222C4970.97 377.222 4978.39 375.233 4984.94 371.256C4991.48 367.278 4996.62 361.893 5000.35 355.098C5004.08 348.304 5005.94 340.68 5005.94 332.229C5005.94 323.777 5004.08 316.195 5000.35 309.484C4996.7 302.772 4991.65 297.428 4985.19 293.45C4978.72 289.473 4971.35 287.484 4963.06 287.484C4956.85 287.484 4951.09 288.644 4945.79 290.964C4940.56 293.285 4935.97 296.516 4931.99 300.659C4928.09 304.802 4925.03 309.608 4922.79 315.077C4920.55 320.463 4919.44 326.221 4919.44 332.353C4919.44 340.556 4921.3 348.055 4925.03 354.849C4928.84 361.644 4933.98 367.071 4940.44 371.131C4946.99 375.192 4954.4 377.222 4962.69 377.222Z" fill="#737370"/>
<path d="M4820.31 1850L4859 1880.26L4691.24 2150H4652.55L4559 2003.86L4597.69 1963.63L4671.9 2040.88L4820.31 1850Z" fill="#FA8F00"/>
<circle cx="6462" cy="5869" r="1490" stroke="#006CA9" stroke-width="20"/>
<circle cx="6456" cy="4873" r="390" fill="#006CA9" stroke="#006CA9" stroke-width="20"/>
<circle cx="7262" cy="5380" r="390" stroke="#006CA9" stroke-width="20"/>
<circle cx="5650" cy="6364" r="390" stroke="#006CA9" stroke-width="20"/>
<circle cx="5650" cy="5380" r="390" stroke="#006CA9" stroke-width="20"/>
<circle cx="7262" cy="6364" r="390" stroke="#006CA9" stroke-width="20"/>
<circle cx="6462" cy="6840" r="390" stroke="#006CA9" stroke-width="20"/>
<path d="M6063.11 4230.06L6063.23 4166.55H6070.94L6132.09 4094.09H6192.86L6110.71 4190.04H6098.15L6063.11 4230.06ZM6015.13 4285V4030.45H6068.08V4285H6015.13ZM6134.45 4285L6078.27 4201.85L6113.57 4164.44L6196.47 4285H6134.45ZM6311.78 4138.59V4094.34H6483.42V4138.59H6311.78ZM6311.78 4221.12V4176.87H6483.42V4221.12H6311.78ZM6728.99 4030.45V4285H6675.17V4081.54H6673.68L6615.39 4118.08V4070.35L6678.4 4030.45H6728.99Z" fill="#737370"/>
<path d="M6528.18 5879L6621.73 5972.55L6565.55 6028.73L6472 5935.18L6378.18 6029L6322 5972.82L6415.82 5879L6322 5785.18L6378.18 5729L6472 5822.82L6565.82 5729.27L6622 5785.45L6528.18 5879Z" fill="#737370"/>
<path d="M9618.18 5879L9711.73 5972.55L9655.55 6028.73L9562 5935.18L9468.18 6029L9412 5972.82L9505.82 5879L9412 5785.18L9468.18 5729L9562 5822.82L9655.82 5729.27L9712 5785.45L9618.18 5879Z" fill="#737370"/>
<circle cx="9562" cy="5869" r="1490" stroke="#006CA9" stroke-width="20"/>
<circle cx="9556" cy="4873" r="390" stroke="#006CA9" stroke-width="20"/>
<circle cx="10362" cy="5380" r="390" fill="#006CA9" stroke="#006CA9" stroke-width="20"/>
<circle cx="8750" cy="6364" r="390" fill="#006CA9" stroke="#006CA9" stroke-width="20"/>
<circle cx="8750" cy="5380" r="390" fill="#006CA9" stroke="#006CA9" stroke-width="20"/>
<circle cx="10362" cy="6364" r="390" fill="#006CA9" stroke="#006CA9" stroke-width="20"/>
<circle cx="9562" cy="6840" r="390" fill="#006CA9" stroke="#006CA9" stroke-width="20"/>
<path d="M9163.11 4230.06L9163.23 4166.55H9170.94L9232.09 4094.09H9292.86L9210.71 4190.04H9198.15L9163.11 4230.06ZM9115.13 4285V4030.45H9168.08V4285H9115.13ZM9234.45 4285L9178.27 4201.85L9213.57 4164.44L9296.47 4285H9234.45ZM9411.78 4138.59V4094.34H9583.42V4138.59H9411.78ZM9411.78 4221.12V4176.87H9583.42V4221.12H9411.78ZM9811.21 4288.48C9793.65 4288.48 9777.99 4285.25 9764.23 4278.79C9750.56 4272.32 9739.71 4263.42 9731.67 4252.06C9723.63 4240.71 9719.45 4227.7 9719.12 4213.04H9771.32C9771.9 4222.9 9776.04 4230.89 9783.75 4237.02C9791.45 4243.16 9800.61 4246.22 9811.21 4246.22C9819.67 4246.22 9827.12 4244.36 9833.59 4240.63C9840.13 4236.82 9845.23 4231.56 9848.87 4224.84C9852.6 4218.05 9854.47 4210.26 9854.47 4201.48C9854.47 4192.53 9852.56 4184.66 9848.75 4177.86C9845.02 4171.07 9839.84 4165.76 9833.21 4161.95C9826.58 4158.14 9819 4156.19 9810.47 4156.11C9803.01 4156.11 9795.76 4157.64 9788.72 4160.71C9781.76 4163.78 9776.33 4167.96 9772.44 4173.26L9724.58 4164.69L9736.64 4030.45H9892.25V4074.45H9781.01L9774.42 4138.21H9775.92C9780.39 4131.92 9787.14 4126.7 9796.18 4122.55C9805.21 4118.41 9815.32 4116.34 9826.5 4116.34C9841.83 4116.34 9855.5 4119.94 9867.52 4127.15C9879.53 4134.36 9889.02 4144.26 9895.98 4156.86C9902.94 4169.37 9906.38 4183.79 9906.3 4200.11C9906.38 4217.26 9902.4 4232.51 9894.36 4245.85C9886.41 4259.11 9875.26 4269.55 9860.93 4277.17C9846.68 4284.71 9830.11 4288.48 9811.21 4288.48Z" fill="#737370"/>
<rect x="4772" y="3956" width="6480" height="3643" stroke="#737370" stroke-width="20" stroke-dasharray="20 20"/>
<rect x="6413" y="10" width="3196" height="3643" stroke="#737370" stroke-width="20" stroke-dasharray="20 20"/>
<rect x="9772" y="10" width="6266" height="3643" stroke="#737370" stroke-width="20" stroke-dasharray="20 20"/>
<rect x="10" y="10" width="6242" height="3643" stroke="#737370" stroke-width="20" stroke-dasharray="20 20"/>
</svg>
